HIERARCHY
ROOT Hips
{
	OFFSET 56.877701 -32.693596 43.373703
	CHANNELS 6 Xposition Yposition Zposition Zrotation Xrotation Yrotation
	JOINT Chest
	{
		OFFSET -0.779999 1.005800 5.403099
		CHANNELS 6 Xposition Yposition Zposition Zrotation Xrotation Yrotation
		JOINT Chest2
		{
			OFFSET 0.000000 0.000000 4.236801
			CHANNELS 6 Xposition Yposition Zposition Zrotation Xrotation Yrotation
			JOINT Neck
			{
				OFFSET 0.000000 0.000000 9.874401
				CHANNELS 6 Xposition Yposition Zposition Zrotation Xrotation Yrotation
				JOINT Head
				{
					OFFSET 0.000000 0.000002 2.173893
					CHANNELS 6 Xposition Yposition Zposition Zrotation Xrotation Yrotation
					End Site
					{
						OFFSET 0.000000 0.000000 6.508102
					}
				}
			}
			JOINT LeftCollar
			{
				OFFSET 2.681599 -0.377600 5.432499
				CHANNELS 6 Xposition Yposition Zposition Zrotation Xrotation Yrotation
				JOINT LeftShoulder
				{
					OFFSET 5.161499 0.000000 0.000000
					CHANNELS 6 Xposition Yposition Zposition Zrotation Xrotation Yrotation
					JOINT LeftElbow
					{
						OFFSET 0.000000 0.000000 -10.869099
						CHANNELS 6 Xposition Yposition Zposition Zrotation Xrotation Yrotation
						JOINT LeftWrist
						{
							OFFSET 0.000000 0.000000 -13.344799
							CHANNELS 6 Xposition Yposition Zposition Zrotation Xrotation Yrotation
							End Site
							{
								OFFSET 0.000000 0.000000 -2.173901
							}
						}
					}
				}
			}
			JOINT RightCollar
			{
				OFFSET -2.381901 -1.419600 6.136600
				CHANNELS 6 Xposition Yposition Zposition Zrotation Xrotation Yrotation
				JOINT RightShoulder
				{
					OFFSET -4.550499 0.000000 0.000000
					CHANNELS 6 Xposition Yposition Zposition Zrotation Xrotation Yrotation
					JOINT RightElbow
					{
						OFFSET 0.000000 0.000000 -11.106499
						CHANNELS 6 Xposition Yposition Zposition Zrotation Xrotation Yrotation
						JOINT RightWrist
						{
							OFFSET 0.000000 0.000000 -12.874298
							CHANNELS 6 Xposition Yposition Zposition Zrotation Xrotation Yrotation
							End Site
							{
								OFFSET 0.000000 0.000000 -2.173901
							}
						}
					}
				}
			}
		}
	}
	JOINT LeftHip
	{
		OFFSET 2.431900 0.469601 -2.489399
		CHANNELS 6 Xposition Yposition Zposition Zrotation Xrotation Yrotation
		JOINT LeftKnee
		{
			OFFSET 0.000000 -0.000004 -18.200201
			CHANNELS 6 Xposition Yposition Zposition Zrotation Xrotation Yrotation
			JOINT LeftAnkle
			{
				OFFSET 0.000000 0.000000 -16.279900
				CHANNELS 6 Xposition Yposition Zposition Zrotation Xrotation Yrotation
				End Site
				{
					OFFSET 0.000000 -8.394100 0.000000
				}
			}
		}
	}
	JOINT RightHip
	{
		OFFSET -1.987999 -0.073502 -2.713001
		CHANNELS 6 Xposition Yposition Zposition Zrotation Xrotation Yrotation
		JOINT RightKnee
		{
			OFFSET 0.000000 -0.000004 -19.547802
			CHANNELS 6 Xposition Yposition Zposition Zrotation Xrotation Yrotation
			JOINT RightAnkle
			{
				OFFSET 0.000000 0.000000 -14.881199
				CHANNELS 6 Xposition Yposition Zposition Zrotation Xrotation Yrotation
				End Site
				{
					OFFSET 0.000000 -7.922699 0.000000
				}
			}
		}
	}
}
MOTION
Frames: 9
Frame Time: 0.041667
-41.413208 -53.710400 44.080109 4577.659663 1.225993 5.272521 -0.779993 1.005797 5.403097 -35.232243 0.096127 2.754323 0.000000 -0.000006 4.236803 7.347993 -2.809153 -0.500296 0.000005 -0.000000 9.874401 37.312121 -3.210684 -13.323412 -0.000000 0.000006 2.173893 3.042833 3.692846 6.890554 2.681602 -0.377604 5.432497 -21.401426 10.242926 -6.703581 5.161503 -0.000003 0.000005 153.515987 -121.752111 86.576049 -0.000014 0.000010 -10.869102 21.888907 -15.564411 8.936677 -0.000004 -0.000009 -13.344795 -73.510628 -14.076233 15.182727 -2.381901 -1.419602 6.136589 -7.052999 -6.413169 11.855947 -4.550509 0.000005 -0.000003 -1276.738083 -523.231668 -439.866559 -0.000009 -0.000005 -11.106508 712.073777 -19.972308 716.658637 -0.000003 -0.000006 -12.874295 -314.857350 22.151195 -55.057687 2.431901 0.469592 -2.489388 -364.437966 -10.160799 -6.702044 -0.000001 -0.000013 -18.200199 362.935407 28.444888 11.794872 0.000002 -0.000010 -16.279892 10.390412 27.943223 -10.480089 -1.988003 -0.073508 -2.712996 -110.700735 -41.022867 -121.634577 -0.000005 0.000003 -19.547802 -1626.335797 124.597226 -159.501719 -0.000000 -0.000004 -14.881195 2022.827950 100.017172 -551.441934
-41.410095 -53.698395 44.072399 4577.494864 1.178924 5.302764 -0.779997 1.005802 5.403099 -35.077895 0.203061 2.793111 -0.000009 -0.000002 4.236798 7.305247 -2.870990 -0.507874 0.000009 0.000006 9.874409 37.250342 -3.174582 -13.499158 0.000001 0.000006 2.173886 3.002369 3.779783 6.842985 2.681602 -0.377598 5.432504 -21.346160 10.164004 -6.620258 5.161507 -0.000001 -0.000000 153.756506 -121.789636 86.789062 0.000002 -0.000004 -10.869102 22.517440 -16.046017 9.212473 0.000006 0.000000 -13.344799 -73.815944 -14.126135 15.097416 -2.381897 -1.419601 6.136599 -7.067597 -6.609694 12.290129 -4.550508 0.000000 -0.000007 -1276.339528 -523.070694 -439.635180 0.000003 0.000002 -11.106503 712.009901 -20.020821 716.614104 -0.000006 0.000006 -12.874297 -314.844291 22.106599 -55.241460 2.431905 0.469600 -2.489399 -364.214947 -10.254840 -6.689607 -0.000008 -0.000011 -18.200199 362.569718 28.629431 11.813864 -0.000002 0.000000 -16.279902 10.545633 27.824502 -10.277279 -1.987996 -0.073498 -2.713009 -110.683086 -41.081126 -121.720815 -0.000004 -0.000006 -19.547794 -1626.608786 123.738098 -158.950906 -0.000000 0.000004 -14.881193 2023.840785 99.816405 -552.978672
-41.406204 -53.690292 44.069698 4577.365473 1.129486 5.325915 -0.780008 1.005807 5.403102 -35.116690 0.322896 2.894005 0.000004 -0.000006 4.236797 7.350094 -2.936978 -0.572863 -0.000002 0.000007 9.874407 37.218800 -3.174495 -13.527687 0.000002 0.000006 2.173893 3.034084 3.837640 6.805837 2.681590 -0.377598 5.432505 -21.225358 9.976383 -6.609543 5.161520 0.000009 0.000003 153.989005 -121.315908 87.043541 0.000004 0.000004 -10.869091 23.399839 -16.346378 9.721009 -0.000001 0.000002 -13.344795 -74.957945 -14.159126 14.998336 -2.381899 -1.419595 6.136594 -6.946886 -6.686596 12.835068 -4.550505 0.000003 0.000010 -1276.069817 -522.785684 -439.498139 0.000011 -0.000004 -11.106502 711.802755 -20.052667 716.481052 0.000007 0.000008 -12.874298 -314.726292 22.144974 -55.106677 2.431892 0.469602 -2.489393 -364.000916 -10.313176 -6.705357 -0.000005 -0.000004 -18.200199 362.328503 28.765881 11.855189 -0.000005 0.000005 -16.279902 10.559934 27.719433 -10.179489 -1.988006 -0.073490 -2.713001 -110.640329 -41.082068 -121.750868 -0.000008 -0.000007 -19.547794 -1626.794567 122.798796 -158.296246 -0.000000 -0.000004 -14.881200 2024.950445 99.853589 -554.864187
-41.402000 -53.681801 44.070908 4577.271053 1.076017 5.348249 -0.779997 1.005799 5.403098 -35.156742 0.393501 2.871560 0.000001 -0.000004 4.236796 7.384973 -2.932502 -0.506943 -0.000002 0.000005 9.874400 37.367391 -3.232357 -13.666567 0.000001 0.000002 2.173887 2.925683 3.868072 6.844843 2.681592 -0.377598 5.432502 -21.130623 9.796569 -6.570987 5.161509 -0.000004 0.000005 154.144925 -120.710739 87.190035 0.000006 -0.000003 -10.869094 24.020290 -16.622170 10.242797 0.000007 0.000000 -13.344799 -76.040940 -14.159215 14.979102 -2.381900 -1.419599 6.136599 -7.617303 -5.585226 13.793973 -4.550507 0.000007 0.000001 -1275.567990 -521.263645 -440.284594 0.000007 -0.000002 -11.106503 711.717951 -20.066245 716.483347 -0.000008 -0.000001 -12.874299 -314.665422 22.120737 -55.057417 2.431898 0.469606 -2.489398 -363.839642 -10.333709 -6.723765 0.000004 -0.000008 -18.200201 362.118871 28.859448 11.905909 0.000000 0.000002 -16.279903 10.606103 27.643203 -10.111791 -1.988001 -0.073499 -2.713005 -110.576583 -41.113593 -121.737248 -0.000002 -0.000002 -19.547806 -1626.418852 121.758955 -158.094810 0.000003 0.000002 -14.881191 2024.698220 99.860125 -555.198265
-41.395599 -53.672592 44.074005 4577.204171 1.026277 5.381889 -0.780000 1.005802 5.403105 -35.170533 0.462372 2.916979 0.000003 0.000002 4.236796 7.353189 -2.935259 -0.401320 0.000001 0.000010 9.874399 37.469468 -3.340823 -13.794452 -0.000001 0.000009 2.173896 2.899064 3.875098 6.874441 2.681602 -0.377594 5.432501 -21.022940 9.719319 -6.589531 5.161496 -0.000006 0.000007 154.341416 -120.704387 87.349828 0.000003 -0.000006 -10.869104 25.091632 -16.949256 10.694603 -0.000010 0.000001 -13.344795 -77.009119 -14.229004 14.993076 -2.381900 -1.419589 6.136590 -7.591285 -5.645942 14.196879 -4.550506 0.000009 0.000002 -1275.132715 -520.789411 -440.112064 -0.000003 -0.000003 -11.106502 711.509221 -19.971647 716.405647 0.000006 0.000008 -12.874293 -314.309924 22.130542 -55.186327 2.431895 0.469602 -2.489387 -363.748718 -10.323257 -6.754811 -0.000001 -0.000006 -18.200199 361.967077 28.891328 11.949492 -0.000005 -0.000004 -16.279898 10.682972 27.601860 -10.076710 -1.988002 -0.073497 -2.712994 -110.496403 -41.086077 -121.629058 -0.000007 0.000001 -19.547798 -1625.919647 120.791253 -158.050659 0.000003 0.000008 -14.881196 2024.022195 99.760076 -555.188921
-41.385605 -53.661995 44.077400 4577.146033 0.995804 5.423294 -0.779994 1.005803 5.403093 -35.185378 0.624603 2.956856 0.000001 0.000002 4.236805 7.373871 -3.019725 -0.408135 0.000001 0.000003 9.874401 37.514339 -3.374858 -13.807692 0.000001 0.000003 2.173892 2.908286 3.873021 6.866004 2.681602 -0.377606 5.432507 -20.966804 9.586303 -6.490510 5.161498 -0.000004 0.000001 154.387164 -120.465262 87.362668 0.000009 0.000010 -10.869109 26.010860 -17.215961 11.227468 -0.000004 0.000000 -13.344794 -78.078700 -14.285124 15.060195 -2.381900 -1.419603 6.136593 -7.603671 -5.771454 14.779034 -4.550507 0.000007 -0.000005 -1274.742138 -520.368726 -440.008955 0.000007 -0.000008 -11.106500 711.746638 -19.916608 716.509083 0.000002 -0.000001 -12.874304 -314.423934 22.153918 -55.109897 2.431902 0.469609 -2.489397 -363.647795 -10.341834 -6.795533 -0.000005 -0.000003 -18.200203 361.901507 28.921794 11.960700 0.000000 0.000000 -16.279898 10.743847 27.635297 -10.169622 -1.987998 -0.073495 -2.713009 -110.424160 -41.062148 -121.512344 -0.000007 -0.000003 -19.547798 -1625.655401 119.948271 -157.861613 0.000015 0.000005 -14.881189 2023.378955 99.716623 -555.184659
-41.370300 -53.649494 44.079800 4577.091828 0.984135 5.460021 -0.779997 1.005797 5.403097 -35.114084 0.733641 2.985105 -0.000001 -0.000003 4.236797 7.346824 -3.053182 -0.412452 0.000000 0.000002 9.874395 37.510958 -3.420862 -13.752898 -0.000002 0.000004 2.173901 2.915486 3.839195 6.876039 2.681600 -0.377604 5.432501 -20.904713 9.486391 -6.385880 5.161504 -0.000003 -0.000004 154.272226 -120.135733 87.263972 -0.000021 -0.000002 -10.869094 27.091752 -17.382797 11.827477 0.000006 0.000004 -13.344788 -79.433474 -14.321094 15.138833 -2.381901 -1.419606 6.136592 -7.647205 -5.910651 15.099774 -4.550503 0.000004 -0.000006 -1274.270144 -520.078689 -439.564419 0.000001 0.000001 -11.106499 711.519603 -19.807919 716.541048 0.000004 0.000003 -12.874286 -314.414043 22.066309 -55.099351 2.431903 0.469598 -2.489394 -363.530316 -10.395609 -6.830913 0.000001 -0.000010 -18.200207 361.855390 28.968734 11.970870 -0.000002 -0.000005 -16.279896 10.765179 27.675334 -10.267686 -1.987991 -0.073503 -2.713002 -110.353509 -41.054392 -121.426352 -0.000003 0.000005 -19.547810 -1624.940471 118.969792 -157.963629 0.000003 -0.000005 -14.881201 2022.571354 99.866020 -555.394155
-41.352203 -53.637695 44.080513 4577.046804 0.985808 5.494701 -0.779994 1.005803 5.403096 -34.990649 0.837228 3.010688 -0.000010 0.000001 4.236797 7.299013 -3.076469 -0.415281 0.000012 0.000004 9.874407 37.456361 -3.433398 -13.731051 -0.000001 0.000006 2.173902 2.924574 3.774748 6.871058 2.681607 -0.377600 5.432506 -20.813950 9.388536 -6.337471 5.161502 -0.000009 -0.000001 154.194130 -119.855736 87.349575 -0.000000 0.000008 -10.869102 27.357669 -17.764369 12.127337 0.000001 0.000003 -13.344800 -79.938895 -14.247773 14.871675 -2.381889 -1.419597 6.136599 -7.810457 -6.178583 15.314804 -4.550511 0.000002 -0.000002 -1273.615758 -519.861817 -438.947653 -0.000004 -0.000012 -11.106503 711.461573 -19.670229 716.620388 -0.000001 -0.000002 -12.874294 -314.367298 22.072861 -55.246019 2.431901 0.469602 -2.489399 -363.352677 -10.466308 -6.838226 -0.000001 -0.000000 -18.200203 361.647534 29.044181 11.979502 -0.000004 -0.000000 -16.279902 10.801910 27.669880 -10.268301 -1.987997 -0.073498 -2.713001 -110.318149 -41.008982 -121.343092 -0.000006 0.000010 -19.547808 -1624.874901 118.241366 -157.694970 -0.000001 -0.000007 -14.881199 2021.635017 99.803366 -554.926424
-41.333008 -53.626793 44.079205 4577.008336 0.991395 5.524061 -0.779997 1.005807 5.403095 -34.828876 0.940173 3.043608 -0.000001 -0.000002 4.236804 7.234164 -3.093815 -0.416992 -0.000004 0.000004 9.874396 37.365735 -3.436504 -13.677707 -0.000001 0.000007 2.173884 2.961545 3.702027 6.857163 2.681595 -0.377602 5.432500 -20.672379 9.272530 -6.372280 5.161510 -0.000002 0.000002 154.141783 -119.297095 87.551851 -0.000007 0.000000 -10.869106 27.825023 -18.047028 12.583867 0.000005 0.000000 -13.344788 -80.904233 -14.224296 14.662659 -2.381907 -1.419599 6.136592 -7.914952 -6.450218 15.735641 -4.550510 0.000005 0.000009 -1273.061474 -519.469108 -438.496451 0.000010 0.000003 -11.106502 711.672653 -19.496312 716.687214 0.000001 -0.000008 -12.874294 -314.514857 22.048873 -55.332261 2.431900 0.469602 -2.489399 -363.108074 -10.616390 -6.839239 0.000001 -0.000009 -18.200201 361.483090 29.200008 11.957275 -0.000005 -0.000000 -16.279896 10.742631 27.684997 -10.319029 -1.988001 -0.073499 -2.713003 -110.305103 -40.924448 -121.246376 -0.000008 -0.000003 -19.547806 -1626.157447 117.893368 -156.427397 -0.000009 -0.000001 -14.881201 2021.698401 99.522201 -554.981885
